Coordinates
version=1
nRows=30
nColumns=38
inDegrees=no

Units are S.I. units (second, meters, Newtons, ...)
If the header above contains a line with 'inDegrees', this indicates whether rotational values are in degrees (yes) or radians (no).

endheader
time	pelvis_tilt	pelvis_list	pelvis_rotation	pelvis_tx	pelvis_ty	pelvis_tz	hip_flexion_r	hip_adduction_r	hip_rotation_r	knee_angle_r	ankle_angle_r	subtalar_angle_r	mtp_angle_r	hip_flexion_l	hip_adduction_l	hip_rotation_l	knee_angle_l	ankle_angle_l	subtalar_angle_l	mtp_angle_l	lumbar_extension	lumbar_bending	lumbar_rotation	arm_flex_r	arm_add_r	arm_rot_r	elbow_flex_r	pro_sup_r	wrist_flex_r	wrist_dev_r	arm_flex_l	arm_add_l	arm_rot_l	elbow_flex_l	pro_sup_l	wrist_flex_l	wrist_dev_l
1.66	-0.123966	-0.0628988	-0.0960184	1.11342	0.927679	-0.420726	0.252603	0.22344	0.157762	-0.935328	0.530754	-0.011301	-0.00541667	0.721036	-0.0725547	-0.0283387	-2.11458	0.16569	-0.0674457	-0.0432307	-0.236426	0.101128	0.211408	-0.209115	-0.311752	-0.184629	2.20017	1.71015	0.0123863	7.90272e-05	-0.693199	-0.286272	-0.0688381	1.82144	1.57309	0.00213982	0.0132023
1.67	-0.140418	-0.0359271	-0.0877136	1.11613	0.931778	-0.419959	0.180391	0.184791	0.166275	-0.864179	0.481747	-0.011301	-0.00541667	0.794922	-0.055887	-0.0387068	-2.05852	0.185564	-0.0674457	-0.0432307	-0.20453	0.0659522	0.224144	-0.193498	-0.305153	-0.171703	2.2573	1.7312	0.0123863	7.90272e-05	-0.763307	-0.29244	-0.0868233	1.8621	1.56742	0.00213982	0.0132023
1.68	-0.157158	-0.00782511	-0.0796575	1.11952	0.936448	-0.41937	0.109092	0.14274	0.169087	-0.786615	0.409004	-0.011301	-0.00541667	0.860876	-0.0357557	-0.0526278	-1.98851	0.202264	-0.0674457	-0.0432307	-0.17172	0.0288596	0.234214	-0.179707	-0.302624	-0.152142	2.31296	1.74804	0.0123863	7.90272e-05	-0.835442	-0.292833	-0.111425	1.90528	1.56499	0.00213982	0.0132023
1.69	-0.173296	0.0200511	-0.0721353	1.12339	0.941475	-0.419003	0.0401633	0.099742	0.167157	-0.707507	0.316057	-0.011301	-0.00541667	0.917365	-0.0127278	-0.0681358	-1.90546	0.216098	-0.0674457	-0.0432307	-0.139581	-0.00863189	0.242117	-0.167169	-0.304837	-0.126145	2.3644	1.75909	0.0123863	7.90272e-05	-0.907289	-0.286709	-0.141997	1.94855	1.56558	0.00213982	0.0132023
1.7	-0.188096	0.0464444	-0.0653484	1.12747	0.946634	-0.418855	-0.0248425	0.0584552	0.162357	-0.632332	0.208597	-0.011301	-0.00541667	0.96332	0.0122874	-0.083428	-1.81018	0.227573	-0.0674457	-0.0432307	-0.10947	-0.045024	0.248481	-0.155927	-0.311893	-0.0949328	2.40952	1.76324	0.0123863	7.90272e-05	-0.976272	-0.274218	-0.177183	1.99007	1.56874	0.00213982	0.0132023
1.71	-0.200983	0.0702245	-0.0594102	1.1315	0.951717	-0.418872	-0.0844033	0.0215742	0.157245	-0.566813	0.0940785	-0.011301	-0.00541667	0.998058	0.0380999	-0.097042	-1.7034	0.237363	-0.0674457	-0.0432307	-0.0825144	-0.0788733	0.25396	-0.146557	-0.323387	-0.0605625	2.44688	1.76006	0.0123863	7.90272e-05	-1.0397	-0.256326	-0.215122	2.02856	1.57394	0.00213982	0.0132023
1.72	-0.211502	0.090422	-0.0543361	1.13527	0.956551	-0.418965	-0.137214	-0.00840694	0.154615	-0.516404	-0.0190039	-0.011301	-0.00541667	1.02119	0.0634135	-0.1079	-1.58591	0.246195	-0.0674457	-0.0432307	-0.0596548	-0.108854	0.259114	-0.139982	-0.338491	-0.0256323	2.47561	1.74998	0.0123863	7.90272e-05	-1.09499	-0.234619	-0.253713	2.06322	1.58064	0.00213982	0.0132023
1.73	-0.219305	0.106241	-0.0500409	1.13861	0.960997	-0.419036	-0.182306	-0.0294893	0.156852	-0.485759	-0.122157	-0.011301	-0.00541667	1.03259	0.0870507	-0.115264	-1.45871	0.254691	-0.0674457	-0.0432307	-0.0416543	-0.13386	0.264301	-0.137253	-0.356056	0.00708387	2.49529	1.73436	0.0123863	7.90272e-05	-1.13983	-0.211035	-0.290862	2.09362	1.58837	0.00213982	0.0132023
1.74	-0.224172	0.117145	-0.0463545	1.14143	0.964943	-0.419007	-0.219088	-0.0404557	0.165228	-0.478274	-0.208152	-0.011301	-0.00541667	1.0324	0.108167	-0.118652	-1.3233	0.263213	-0.0674457	-0.0432307	-0.0290856	-0.153094	0.269595	-0.139314	-0.374715	0.0350317	2.50576	1.71535	0.0123863	7.90272e-05	-1.17248	-0.187556	-0.3247	2.11964	1.59669	0.00213982	0.0132023
1.75	-0.226005	0.123005	-0.0430167	1.1437	0.968298	-0.418856	-0.247301	-0.041116	0.179345	-0.495783	-0.272246	-0.011301	-0.00541667	1.02111	0.126354	-0.117812	-1.18189	0.271746	-0.0674457	-0.0432307	-0.0222746	-0.16615	0.274767	-0.146793	-0.393006	0.0562472	2.50699	1.69542	0.0123863	7.90272e-05	-1.1919	-0.16593	-0.353754	2.14136	1.60529	0.00213982	0.0132023
1.76	-0.224834	0.124106	-0.0397181	1.14544	0.970992	-0.418629	-0.266932	-0.0324857	0.196973	-0.538445	-0.312954	-0.011301	-0.00541667	0.99962	0.141636	-0.112836	-1.03764	0.279848	-0.0674457	-0.0432307	-0.02125	-0.173123	0.279312	-0.159848	-0.409488	0.0696316	2.49899	1.67674	0.0123863	7.90272e-05	-1.19784	-0.147466	-0.377061	2.15901	1.61391	0.00213982	0.0132023
1.77	-0.220818	0.12117	-0.0361607	1.14671	0.972966	-0.418431	-0.278144	-0.0167741	0.214411	-0.604845	-0.332049	-0.011301	-0.00541667	0.969363	0.154347	-0.104366	-0.89472	0.286671	-0.0674457	-0.0432307	-0.0257281	-0.174651	0.282545	-0.178097	-0.422858	0.0750438	2.4817	1.66075	0.0123863	7.90272e-05	-1.19088	-0.132945	-0.394188	2.1729	1.62235	0.00213982	0.0132023
1.78	-0.214214	0.115319	-0.0321164	1.14757	0.974163	-0.418376	-0.281255	0.00286666	0.227342	-0.692233	-0.333726	-0.011301	-0.00541667	0.932284	0.164944	-0.0937396	-0.758366	0.291074	-0.0674457	-0.0432307	-0.035158	-0.17185	0.283726	-0.200632	-0.432056	0.0732004	2.45506	1.64807	0.0123863	7.90272e-05	-1.17222	-0.12264	-0.405193	2.18341	1.63038	0.00213982	0.0132023
1.79	-0.205348	0.107911	-0.0274839	1.14807	0.974539	-0.418542	-0.276757	0.0228048	0.231953	-0.796895	-0.323243	-0.011301	-0.00541667	0.890837	0.173835	-0.0829826	-0.634709	0.291854	-0.0674457	-0.0432307	-0.0488228	-0.166168	0.282193	-0.226124	-0.436343	0.0654237	2.41899	1.6386	0.0123863	7.90272e-05	-1.1435	-0.116416	-0.410513	2.19092	1.63768	0.00213982	0.0132023
1.8	-0.194542	0.100292	-0.0223221	1.14824	0.97407	-0.418934	-0.265321	0.039536	0.225878	-0.914577	-0.305566	-0.011301	-0.00541667	0.847931	0.181255	-0.0745245	-0.530535	0.28809	-0.0674457	-0.0432307	-0.0659485	-0.159164	0.277444	-0.252985	-0.435347	0.0533128	2.3735	1.6319	0.0123863	7.90272e-05	-1.10656	-0.113876	-0.41082	2.19574	1.64387	0.00213982	0.0132023
1.81	-0.182105	0.0935907	-0.0168425	1.14809	0.972755	-0.419478	-0.247727	0.0502933	0.208696	-1.04091	-0.284459	-0.011301	-0.00541667	0.806791	0.187216	-0.0707087	-0.45285	0.279547	-0.0674457	-0.0432307	-0.0858037	-0.152242	0.269176	-0.279574	-0.429061	0.0384306	2.31881	1.62748	0.0123863	7.90272e-05	-1.06314	-0.114512	-0.40688	2.19811	1.64852	0.00213982	0.0132023
1.82	-0.168406	0.0885296	-0.0113619	1.1476	0.970592	-0.420037	-0.224728	0.0534767	0.181927	-1.17179	-0.262154	-0.011301	-0.00541667	0.770676	0.191556	-0.073237	-0.408105	0.267033	-0.0674457	-0.0432307	-0.107762	-0.146477	0.257269	-0.304406	-0.417799	0.0220832	2.25546	1.62507	0.0123863	7.90272e-05	-1.01474	-0.11783	-0.399444	2.19808	1.6512	0.00213982	0.0132023
1.83	-0.153827	0.0854895	-0.00619031	1.1467	0.967597	-0.420486	-0.196812	0.0488435	0.148614	-1.30364	-0.239503	-0.011301	-0.00541667	0.742361	0.194082	-0.0826878	-0.400914	0.252514	-0.0674457	-0.0432307	-0.131242	-0.142506	0.241737	-0.326327	-0.402139	0.0052236	2.18446	1.62474	0.0123863	7.90272e-05	-0.962487	-0.123442	-0.389192	2.19557	1.65152	0.00213982	0.0132023
1.84	-0.138855	0.0845872	-0.00156281	1.14534	0.963787	-0.420743	-0.164016	0.0373817	0.112679	-1.43357	-0.216365	-0.011301	-0.00541667	0.723248	0.194903	-0.0982012	-0.432071	0.238748	-0.0674457	-0.0432307	-0.155649	-0.140625	0.222639	-0.34465	-0.382837	-0.011529	2.10732	1.62675	0.0123863	7.90272e-05	-0.907122	-0.131104	-0.376723	2.19032	1.64924	0.00213982	0.0132023
1.85	-0.124128	0.0857657	0.00241824	1.14352	0.95922	-0.420792	-0.125873	0.0210275	0.0782738	-1.55925	-0.192055	-0.011301	-0.00541667	0.712848	0.194599	-0.117512	-0.497586	0.228918	-0.0674457	-0.0432307	-0.180313	-0.140885	0.200049	-0.359251	-0.360781	-0.0278006	2.02621	1.63132	0.0123863	7.90272e-05	-0.849052	-0.140703	-0.362589	2.18201	1.64441	0.00213982	0.0132023
1.86	-0.110398	0.0888641	0.00578657	1.14127	0.954105	-0.420664	-0.0815173	0.0022619	0.049149	-1.6788	-0.165751	-0.011301	-0.00541667	0.708812	0.194202	-0.13737	-0.588982	0.226212	-0.0674457	-0.0432307	-0.204444	-0.143146	0.174069	-0.370594	-0.336954	-0.0433396	1.94387	1.63832	0.0123863	7.90272e-05	-0.788509	-0.152186	-0.347344	2.17043	1.63742	0.00213982	0.0132023
1.87	-0.0983949	0.0936053	0.00866329	1.13867	0.94884	-0.420397	-0.0299101	-0.0163581	0.0280979	-1.79053	-0.136823	-0.011301	-0.00541667	0.707577	0.194916	-0.154304	-0.695018	0.23339	-0.0674457	-0.0432307	-0.227113	-0.14708	0.144882	-0.379708	-0.312433	-0.0578921	1.86357	1.64701	0.0123863	7.90272e-05	-0.725754	-0.16545	-0.331609	2.15564	1.62898	0.00213982	0.0132023
1.88	-0.0887837	0.0994812	0.0111392	1.13583	0.943849	-0.420016	0.0297924	-0.0325792	0.0166041	-1.89271	-0.105061	-0.011301	-0.00541667	0.705169	0.197679	-0.165386	-0.803936	0.25222	-0.0674457	-0.0432307	-0.247338	-0.152105	0.112835	-0.388072	-0.28839	-0.0711207	1.78896	1.65606	0.0123863	7.90272e-05	-0.661309	-0.180204	-0.316103	2.13825	1.62006	0.00213982	0.0132023
1.89	-0.0820389	0.105774	0.0132308	1.13287	0.939386	-0.419549	0.0978915	-0.0447675	0.0147176	-1.9835	-0.0707773	-0.011301	-0.00541667	0.697777	0.20284	-0.16873	-0.905098	0.28283	-0.0674457	-0.0432307	-0.264208	-0.157366	0.0784721	-0.397432	-0.266073	-0.0825973	1.72372	1.66383	0.0123863	7.90272e-05	-0.596115	-0.195865	-0.301646	2.11947	1.61169	0.00213982	0.0132023
1.9	-0.0783309	0.111601	0.0148611	1.1299	0.935579	-0.419041	0.173927	-0.052107	0.0211548	-2.06094	-0.034771	-0.011301	-0.00541667	0.682155	0.21008	-0.163692	-0.990008	0.323377	-0.0674457	-0.0432307	-0.276957	-0.161806	0.0425097	-0.409557	-0.24673	-0.0918831	1.67122	1.66877	0.0123863	7.90272e-05	-0.531567	-0.211524	-0.289095	2.10117	1.60486	0.00213982	0.0132023
1.91	-0.0775663	0.115993	0.0158882	1.12709	0.932613	-0.418565	0.256631	-0.0546015	0.0335777	-2.12307	0.00183694	-0.011301	-0.00541667	0.655904	0.218504	-0.150771	-1.05279	0.370179	-0.0674457	-0.0432307	-0.28505	-0.16428	0.0057659	-0.426011	-0.231485	-0.0987106	1.6341	1.66993	0.0123863	7.90272e-05	-0.469405	-0.226018	-0.279206	2.08566	1.60043	0.00213982	0.0132023
1.92	-0.0794391	0.118047	0.0161775	1.12468	0.930704	-0.418223	0.344088	-0.0528402	0.0489972	-2.16819	0.0378275	-0.011301	-0.00541667	0.617702	0.226801	-0.131327	-1.09025	0.41821	-0.0674457	-0.0432307	-0.288153	-0.163629	-0.0308938	-0.447993	-0.221167	-0.103186	1.61395	1.66732	0.0123863	7.90272e-05	-0.411459	-0.238129	-0.272421	2.07539	1.59901	0.00213982	0.0132023
1.93	-0.0836191	0.116984	0.0156346	1.1229	0.929997	-0.418127	0.434045	-0.047634	0.0642295	-2.19496	0.0721087	-0.011301	-0.00541667	0.567439	0.233417	-0.107282	-1.10159	0.46177	-0.0674457	-0.0432307	-0.286079	-0.158753	-0.0665857	-0.476268	-0.216148	-0.105918	1.61114	1.66186	0.0123863	7.90272e-05	-0.359327	-0.246851	-0.268647	2.07252	1.60095	0.00213982	0.0132023
1.94	-0.0899536	0.1121	0.0142033	1.12196	0.930515	-0.418366	0.524243	-0.0396716	0.0763474	-2.20265	0.103874	-0.011301	-0.00541667	0.506234	0.236733	-0.0808826	-1.08809	0.495176	-0.0674457	-0.0432307	-0.278716	-0.148742	-0.100402	-0.511192	-0.216239	-0.108013	1.62487	1.65509	0.0123863	7.90272e-05	-0.314071	-0.25165	-0.26711	2.07854	1.60623	0.00213982	0.0132023
1.95	-0.0985105	0.102885	0.0118432	1.12199	0.932177	-0.418968	0.612681	-0.0293066	0.0830596	-2.19108	0.132661	-0.011301	-0.00541667	0.436313	0.235233	-0.0544918	-1.05261	0.513372	-0.0674457	-0.0432307	-0.265976	-0.132943	-0.131403	-0.552771	-0.220669	-0.110915	1.65332	1.64866	0.0123863	7.90272e-05	-0.276041	-0.25261	-0.266348	2.09398	1.61449	0.00213982	0.0132023
